# xmcd
#
# Track frame offsets:
# 150
# 21357
# 39433
# 58132
# 79267
# 101164
# 119687
# 139307
# 160105
# 181596
# 202970
# 227079
# 249274
#
# Disc length: 3508 seconds
#
# Revision: 0
# Processed by: cddbd v1.4PL0 Copyright (c) Steve Scherf et al.
# Submitted via: MacMP3 Pro 5.0 (http://mp3.act2.co.jp/)
#
DISCID=ad0db20d
DTITLE=DEEN - Breake7
DYEAR=1900
DGENRE=
TTITLE0=M1
TTITLE1=M2
TTITLE2=M3
TTITLE3=M4
TTITLE4=M5
TTITLE5=M6
TTITLE6=M7
TTITLE7=M8
TTITLE8=M9
TTITLE9=M10
TTITLE10=M11
TTITLE11=M12
TTITLE12=M13
EXTD=
EXTT0=
EXTT1=
EXTT2=
EXTT3=
EXTT4=
EXTT5=
EXTT6=
EXTT7=
EXTT8=
EXTT9=
EXTT10=
EXTT11=
EXTT12=
PLAYORDER=
